<?xml version="1.0" encoding="UTF-8" standalone="no"?>
<!DOCTYPE svg PUBLIC "-//W3C//DTD SVG 1.1//EN" "http://www.w3.org/Graphics/SVG/1.1/DTD/svg11.dtd">
<svg xmlns="http://www.w3.org/2000/svg" version="1.1" viewBox="0.00 0.00 300.00 93.00">
<path stroke="#80d2d0" stroke-width="2.00" fill="none" stroke-linecap="butt" vector-effect="non-scaling-stroke" d="
  M 53.42 83.63
  Q 43.34 75.54 48.02 65.52
  C 49.34 62.69 52.41 60.05 54.75 57.71
  Q 55.14 57.31 55.54 57.70
  C 57.44 59.54 61.11 64.58 64.10 61.66
  Q 65.05 60.74 65.12 58.54
  Q 65.44 48.42 65.12 37.51
  A 3.10 3.10 0.0 0 0 62.02 34.50
  L 39.65 34.50
  A 3.01 3.01 0.0 0 0 37.52 39.63
  L 41.67 43.80
  Q 42.08 44.22 41.68 44.64
  C 35.07 51.57 27.31 61.91 16.29 55.24
  Q 12.41 52.89 10.07 46.93"
/>
<path fill="#00a5a0" d="
  M 53.42 83.63
  Q 43.34 75.54 48.02 65.52
  C 49.34 62.69 52.41 60.05 54.75 57.71
  Q 55.14 57.31 55.54 57.70
  C 57.44 59.54 61.11 64.58 64.10 61.66
  Q 65.05 60.74 65.12 58.54
  Q 65.44 48.42 65.12 37.51
  A 3.10 3.10 0.0 0 0 62.02 34.50
  L 39.65 34.50
  A 3.01 3.01 0.0 0 0 37.52 39.63
  L 41.67 43.80
  Q 42.08 44.22 41.68 44.64
  C 35.07 51.57 27.31 61.91 16.29 55.24
  Q 12.41 52.89 10.07 46.93
  Q 10.25 32.03 10.27 16.47
  Q 10.28 12.31 11.39 10.38
  C 13.85 6.08 21.06 5.90 23.73 10.04
  C 25.68 13.07 25.02 18.22 24.99 22.00
  A 0.42 0.42 0.0 0 0 25.62 22.37
  C 41.70 12.95 63.23 16.33 73.14 33.20
  C 79.82 44.57 79.82 58.74 72.32 69.81
  Q 65.44 79.95 53.42 83.63
  Z"
/>
<path fill="#505356" d="
  M 99.49 41.08
  C 114.68 32.50 128.32 53.05 115.18 63.43
  C 108.78 68.48 97.98 66.68 94.39 58.91
  C 91.80 53.31 92.97 42.08 93.01 35.52
  A 2.60 2.60 0.0 0 1 94.08 33.44
  Q 96.23 31.90 97.84 33.45
  C 99.52 35.07 99.00 38.50 98.85 40.68
  A 0.43 0.43 0.0 0 0 99.49 41.08
  Z
  M 114.41 52.72
  A 7.72 7.72 0.0 0 0 106.69 45.00
  A 7.72 7.72 0.0 0 0 98.97 52.72
  A 7.72 7.72 0.0 0 0 106.69 60.44
  A 7.72 7.72 0.0 0 0 114.41 52.72
  Z"
/>
<path fill="#ffffff" d="
  M 53.42 83.63
  C 28.69 88.74 8.38 72.02 10.07 46.93
  Q 12.41 52.89 16.29 55.24
  C 27.31 61.91 35.07 51.57 41.68 44.64
  Q 42.08 44.22 41.67 43.80
  L 37.52 39.63
  A 3.01 3.01 0.0 0 1 39.65 34.50
  L 62.02 34.50
  A 3.10 3.10 0.0 0 1 65.12 37.51
  Q 65.44 48.42 65.12 58.54
  Q 65.05 60.74 64.10 61.66
  C 61.11 64.58 57.44 59.54 55.54 57.70
  Q 55.14 57.31 54.75 57.71
  C 52.41 60.05 49.34 62.69 48.02 65.52
  Q 43.34 75.54 53.42 83.63
  Z"
/>
<path fill="#505356" d="
  M 249.24 66.89
  C 248.60 70.09 244.43 70.07 243.59 67.01
  Q 243.47 66.55 243.00 66.54
  C 240.14 66.45 235.00 67.44 235.49 62.69
  A 1.36 1.33 67.2 0 1 235.76 62.01
  L 247.97 45.95
  Q 248.38 45.41 247.70 45.35
  C 244.97 45.14 238.87 45.92 236.81 44.68
  C 235.26 43.75 235.04 41.60 236.14 40.33
  C 237.47 38.80 241.08 39.19 242.95 39.27
  Q 243.46 39.29 243.59 38.80
  C 244.46 35.53 248.36 35.63 249.32 38.79
  Q 249.47 39.31 250.01 39.28
  C 251.92 39.17 255.54 38.76 256.80 40.43
  C 257.75 41.68 257.60 43.01 256.63 44.29
  Q 250.98 51.74 245.02 59.63
  Q 244.36 60.51 245.46 60.51
  Q 249.45 60.48 253.93 60.53
  C 256.77 60.56 258.92 63.61 256.48 65.69
  C 255.02 66.94 251.66 66.49 249.89 66.39
  Q 249.34 66.36 249.24 66.89
  Z"
/>
<path fill="#505356" d="
  M 148.46 52.72
  A 13.66 13.66 0.0 0 1 134.80 66.38
  A 13.66 13.66 0.0 0 1 121.14 52.72
  A 13.66 13.66 0.0 0 1 134.80 39.06
  A 13.66 13.66 0.0 0 1 148.46 52.72
  Z
  M 142.53 52.73
  A 7.72 7.72 0.0 0 0 134.81 45.01
  A 7.72 7.72 0.0 0 0 127.09 52.73
  A 7.72 7.72 0.0 0 0 134.81 60.45
  A 7.72 7.72 0.0 0 0 142.53 52.73
  Z"
/>
<path fill="#505356" d="
  M 171.28 41.99
  C 178.51 47.16 176.87 56.10 176.69 63.20
  C 176.58 67.71 171.01 67.23 171.00 63.05
  C 171.00 59.04 171.59 53.05 170.25 49.76
  C 167.41 42.78 156.75 43.87 155.55 51.24
  Q 155.01 54.53 155.25 62.74
  C 155.40 67.51 149.55 67.45 149.52 63.29
  C 149.47 55.75 147.72 47.45 154.86 42.15
  Q 163.03 36.09 171.28 41.99
  Z"
/>
<path fill="#505356" d="
  M 183.26 42.07
  C 192.06 35.37 203.98 40.74 205.39 51.44
  C 205.59 52.93 207.55 69.18 200.92 65.96
  Q 200.48 65.75 200.27 65.31
  L 199.99 64.73
  Q 199.74 64.21 199.22 64.44
  Q 187.88 69.39 181.37 61.56
  C 176.36 55.53 176.96 46.85 183.26 42.07
  Z
  M 199.40 52.74
  A 7.71 7.71 0.0 0 0 191.69 45.03
  A 7.71 7.71 0.0 0 0 183.98 52.74
  A 7.71 7.71 0.0 0 0 191.69 60.45
  A 7.71 7.71 0.0 0 0 199.40 52.74
  Z"
/>
<path fill="#505356" d="
  M 228.81 41.94
  C 235.72 46.54 234.28 55.35 234.27 62.41
  C 234.26 67.45 228.76 67.68 228.53 63.37
  C 228.31 59.14 229.10 51.64 226.97 48.29
  C 224.06 43.71 216.03 44.06 213.71 49.09
  C 212.18 52.41 212.71 58.48 212.76 62.61
  C 212.79 65.07 211.85 66.59 209.21 66.23
  A 2.55 2.55 0.0 0 1 207.01 63.72
  C 206.98 57.23 205.39 48.56 210.92 43.18
  Q 218.96 35.38 228.81 41.94
  Z"
/>
<path fill="#505356" d="
  M 283.81 63.81
  C 283.39 66.92 279.90 67.10 278.29 64.69
  Q 277.98 64.23 277.48 64.47
  Q 268.34 68.83 261.72 63.39
  C 256.24 58.90 254.72 51.23 258.70 45.23
  C 264.19 36.93 276.82 37.08 281.95 45.81
  C 284.54 50.21 284.49 58.85 283.81 63.81
  Z
  M 277.94 52.75
  A 7.73 7.73 0.0 0 0 270.21 45.02
  A 7.73 7.73 0.0 0 0 262.48 52.75
  A 7.73 7.73 0.0 0 0 270.21 60.48
  A 7.73 7.73 0.0 0 0 277.94 52.75
  Z"
/>
</svg>
